<svg xmlns="http://www.w3.org/2000/svg" viewBox="0 0 512 512" width="512" height="512">
  <defs>
    <!-- Desert sunset background gradient: deep purple → warm violet → orange → gold -->
    <radialGradient id="bgGrad" cx="50%" cy="60%" r="70%">
      <stop offset="0%" stop-color="#ff8c42"/>
      <stop offset="40%" stop-color="#e8504a"/>
      <stop offset="75%" stop-color="#9b3fd8"/>
      <stop offset="100%" stop-color="#2d0a6e"/>
    </radialGradient>
    <!-- Lightning bolt gradient: gold at top → bright orange -->
    <linearGradient id="boltGrad" x1="0%" y1="0%" x2="30%" y2="100%">
      <stop offset="0%" stop-color="#ffe566"/>
      <stop offset="35%" stop-color="#ffa93a"/>
      <stop offset="100%" stop-color="#ff6b6b"/>
    </linearGradient>
    <!-- Glow filter for bolt -->
    <filter id="glow" x="-30%" y="-30%" width="160%" height="160%">
      <feGaussianBlur stdDeviation="12" result="blur"/>
      <feMerge>
        <feMergeNode in="blur"/>
        <feMergeNode in="SourceGraphic"/>
      </feMerge>
    </filter>
    <!-- Soft glow behind bolt -->
    <filter id="softGlow" x="-50%" y="-50%" width="200%" height="200%">
      <feGaussianBlur stdDeviation="22" result="blur"/>
      <feColorMatrix in="blur" type="matrix"
        values="1 0.5 0 0 0  0.3 0.3 0 0 0  0 0 0 0 0  0 0 0 0.7 0"
        result="coloredBlur"/>
      <feMerge>
        <feMergeNode in="coloredBlur"/>
        <feMergeNode in="SourceGraphic"/>
      </feMerge>
    </filter>
    <!-- Circular clip -->
    <clipPath id="circle">
      <circle cx="256" cy="256" r="248"/>
    </clipPath>
  </defs>

  <!-- Background circle -->
  <circle cx="256" cy="256" r="256" fill="url(#bgGrad)"/>

  <!-- Horizon glow band -->
  <ellipse cx="256" cy="330" rx="220" ry="60" fill="#ff8c42" opacity="0.35" clip-path="url(#circle)"/>
  <ellipse cx="256" cy="360" rx="200" ry="40" fill="#ffb347" opacity="0.2" clip-path="url(#circle)"/>

  <!-- Small desert mountains silhouette -->
  <g clip-path="url(#circle)" opacity="0.45">
    <polygon points="0,420 80,310 160,390 240,290 320,380 400,305 480,370 512,350 512,512 0,512" fill="#1a0545"/>
  </g>

  <!-- Lightning bolt — glow layer (orange) -->
  <g filter="url(#softGlow)">
    <polygon points="295,60 185,275 248,275 217,452 375,220 295,220" fill="#ff9933" opacity="0.9"/>
  </g>

  <!-- Lightning bolt — main shape -->
  <g filter="url(#glow)">
    <polygon points="295,60 185,275 248,275 217,452 375,220 295,220" fill="url(#boltGrad)"/>
  </g>

  <!-- Subtle border ring -->
  <circle cx="256" cy="256" r="248" fill="none" stroke="#ffc66d" stroke-width="4" opacity="0.4"/>
</svg>
